<?xml version="1.0" standalone="no"?>
<!DOCTYPE svg PUBLIC "-//W3C//DTD SVG 20010904//EN"
 "http://www.w3.org/TR/2001/REC-SVG-20010904/DTD/svg10.dtd">
<svg version="1.0" xmlns="http://www.w3.org/2000/svg"
 width="271.000000pt" height="83.000000pt" viewBox="0 0 271.000000 83.000000"
 preserveAspectRatio="xMidYMid meet">
<metadata>
Created by potrace 1.10, written by Peter Selinger 2001-2011
</metadata>
<g transform="translate(0.000000,83.000000) scale(0.100000,-0.100000)"
fill="#000000" stroke="none">
<path d="M545 803 c-49 -7 -189 -45 -202 -56 -7 -5 -13 -21 -13 -34 0 -19 -4
-24 -18 -20 -186 53 -217 55 -228 13 -3 -13 -9 -148 -12 -301 -7 -257 -6 -278
11 -296 25 -27 48 -25 266 23 176 39 194 45 202 67 10 26 -7 137 -23 147 -18
11 -20 -4 -9 -58 19 -91 25 -88 -214 -138 -163 -35 -191 -37 -204 -12 -6 11
-6 75 -2 167 4 83 9 123 10 90 5 -149 16 -207 41 -227 33 -27 64 -20 198 42
90 43 113 58 123 82 9 22 9 35 0 55 -6 14 -10 28 -7 30 2 3 30 -1 61 -7 51
-11 59 -10 77 6 19 18 19 26 13 179 -9 186 -16 248 -30 250 -6 1 -23 0 -40 -2z
m21 -106 c-3 -12 -6 -74 -6 -137 0 -140 -5 -150 -57 -131 -73 27 -152 65 -156
75 -5 12 10 126 21 165 6 21 19 27 81 43 41 10 76 20 79 23 3 2 13 0 24 -6 14
-8 18 -17 14 -32z m-356 -2 c30 -8 67 -15 83 -15 15 0 27 -2 27 -4 0 -2 -11
-53 -25 -114 -14 -61 -22 -117 -19 -126 5 -13 36 -23 136 -41 33 -6 36 -10 40
-44 2 -20 2 -44 0 -53 -2 -10 -53 -38 -131 -73 -162 -72 -166 -71 -175 47 -3
46 -6 139 -7 207 -2 153 3 160 81 137 62 -19 70 -19 70 -7 0 6 -25 18 -55 27
-52 17 -57 17 -90 1 l-35 -17 0 39 c0 54 14 59 100 36z m145 -235 c18 -19 17
-20 -1 -20 -20 0 -44 17 -44 32 0 15 27 8 45 -12z"/>
<path d="M408 645 c31 -26 58 -72 48 -82 -2 -3 -16 3 -30 12 -14 9 -33 15 -43
12 -15 -3 -13 -6 8 -15 28 -11 39 -30 39 -66 0 -33 12 -40 26 -14 l12 23 7
-27 c4 -15 13 -32 21 -39 17 -14 17 -18 -2 77 -18 87 -38 134 -57 134 -6 0
-23 3 -37 6 -23 6 -23 4 8 -21z"/>
<path d="M1005 725 c-27 -27 -32 -62 -12 -89 19 -26 85 -18 105 12 14 21 13
22 -11 22 -17 0 -24 -5 -23 -17 1 -13 -6 -18 -24 -18 -23 0 -25 3 -23 39 2 21
8 45 14 52 15 19 48 18 55 -1 9 -22 24 -18 24 5 0 31 -73 28 -105 -5z"/>
<path d="M1153 699 c-1 -28 -7 -57 -14 -65 -9 -11 -7 -14 14 -14 13 0 25 6 24
13 -1 33 4 47 18 47 8 0 15 -6 16 -12 0 -7 5 -2 10 11 5 13 6 27 3 30 -4 3 -9
0 -11 -6 -8 -22 -25 -14 -21 10 4 26 48 38 48 13 0 -9 5 -16 10 -16 6 0 10 9
10 20 0 17 -7 20 -52 20 l-53 0 -2 -51z"/>
<path d="M1307 731 c12 -11 29 -40 38 -65 10 -25 21 -46 24 -46 4 0 12 26 20
58 7 31 18 60 25 64 6 5 2 8 -11 8 -14 0 -21 -5 -18 -12 3 -7 1 -26 -3 -43
l-8 -29 -17 42 c-14 35 -21 42 -44 42 l-27 0 21 -19z"/>
<path d="M1438 741 c12 -7 11 -18 -1 -65 l-14 -56 52 0 c40 0 54 4 59 16 9 24
-3 32 -15 11 -9 -14 -59 -26 -59 -12 0 2 5 27 11 55 8 39 15 50 30 50 11 0 22
-7 25 -15 7 -18 24 -10 24 11 0 11 -15 14 -62 14 -39 0 -58 -4 -50 -9z"/>
<path d="M1577 742 c13 -8 -1 -85 -20 -109 -7 -10 -2 -13 21 -13 24 0 29 4 25
19 -7 28 16 101 32 101 19 0 20 -39 1 -46 -15 -6 -11 -39 7 -61 14 -19 87 -17
87 2 0 9 9 15 23 15 14 0 18 3 10 8 -10 6 -10 12 2 28 13 18 14 17 15 -18 0
-20 -6 -39 -12 -41 -7 -3 1 -6 17 -6 l30 -1 0 65 c0 36 -2 65 -5 65 -3 0 -27
-27 -55 -60 -51 -60 -85 -77 -85 -41 0 11 -5 23 -10 26 -6 4 -1 14 12 25 35
28 10 50 -56 50 -28 0 -46 -4 -39 -8z"/>
<path d="M1885 725 c-52 -51 -17 -123 53 -109 23 5 32 12 32 27 0 19 -1 19
-19 3 -32 -29 -56 -17 -55 27 1 20 7 43 14 52 16 20 49 19 57 -1 5 -13 7 -13
14 -2 15 23 10 28 -31 28 -30 0 -47 -7 -65 -25z"/>
<path d="M2014 700 c-1 -27 -7 -56 -14 -65 -11 -13 -8 -15 16 -15 28 0 29 2
31 51 1 28 7 57 14 65 9 12 7 14 -17 14 -28 0 -29 -2 -30 -50z"/>
<path d="M2106 719 c-44 -52 -30 -99 29 -99 55 0 97 65 70 106 -23 35 -67 32
-99 -7z m74 -9 c0 -47 -20 -80 -48 -80 -23 0 -24 2 -17 37 10 52 22 73 45 73
15 0 20 -7 20 -30z"/>
<path d="M2255 738 c3 -7 -1 -37 -8 -65 -10 -37 -11 -53 -3 -53 6 0 12 15 13
34 2 19 7 44 11 56 8 20 11 17 33 -34 13 -30 27 -56 31 -56 3 0 12 24 18 53 7
28 17 58 23 65 7 9 4 12 -11 12 -15 0 -19 -5 -15 -20 3 -11 2 -28 -2 -37 -5
-15 -10 -11 -26 20 -14 27 -26 37 -44 37 -15 0 -23 -5 -20 -12z"/>
<path d="M1285 680 c-4 -22 -11 -42 -16 -46 -12 -7 -2 -24 14 -24 8 0 13 20
14 55 3 65 -2 71 -12 15z"/>
<path d="M1493 699 c-7 -9 -9 -20 -3 -29 12 -19 22 -7 18 21 -2 19 -5 20 -15
8z"/>
<path d="M1235 650 c-4 -6 -17 -15 -29 -20 -19 -8 -19 -9 7 -9 16 -1 30 5 34
14 7 19 -2 31 -12 15z"/>
<path d="M772 503 l3 -98 32 1 c30 0 40 10 102 95 66 90 68 94 44 97 -32 4
-41 -4 -83 -77 -19 -33 -38 -61 -41 -61 -4 0 -4 32 -1 70 l5 70 -32 0 -32 0 3
-97z"/>
<path d="M971 507 c-17 -50 -31 -95 -31 -99 0 -4 12 -5 26 -4 24 3 30 13 55
80 45 124 44 116 10 116 -28 0 -30 -3 -60 -93z"/>
<path d="M1105 588 c-2 -7 -18 -50 -35 -96 -16 -46 -30 -84 -30 -86 0 -1 30 0
68 2 80 5 108 20 133 75 25 55 24 82 -3 101 -28 20 -127 22 -133 4z m87 -38
c15 0 1 -60 -19 -82 -9 -10 -26 -18 -38 -18 l-23 0 21 55 c14 40 24 54 34 50
8 -3 19 -5 25 -5z"/>
<path d="M1316 522 c-30 -43 -62 -85 -71 -92 -23 -19 -18 -30 15 -30 19 0 33
7 40 20 15 27 80 29 80 2 0 -14 8 -19 30 -19 l31 0 -3 96 -3 96 -31 3 c-29 3
-36 -3 -88 -76z m74 -6 c0 -28 -4 -34 -25 -38 -14 -3 -25 -1 -25 4 0 9 41 68
47 68 2 0 3 -15 3 -34z"/>
<path d="M1615 588 c-3 -7 -16 -44 -29 -83 -13 -38 -27 -78 -31 -88 -6 -15 -3
-17 21 -14 24 3 31 11 45 50 8 26 18 50 22 53 3 3 13 -19 22 -49 15 -51 18
-55 43 -53 24 3 31 13 59 87 40 106 40 111 6 107 -24 -3 -30 -11 -44 -58 -10
-33 -19 -49 -23 -40 -3 8 -12 33 -19 55 -11 32 -19 41 -40 43 -16 2 -29 -2
-32 -10z"/>
<path d="M1821 529 c-28 -89 -23 -116 24 -125 74 -14 123 18 154 100 36 98 36
96 2 96 -28 0 -31 -4 -53 -71 -16 -52 -29 -74 -46 -82 -41 -19 -49 4 -24 75
12 35 22 66 22 71 0 4 -13 7 -28 7 -26 0 -30 -5 -51 -71z"/>
<path d="M2041 508 c-17 -51 -31 -95 -31 -98 0 -10 155 -5 162 5 19 25 7 35
-43 35 -43 0 -50 3 -45 16 3 9 6 18 6 20 0 2 22 4 49 4 35 0 51 4 55 16 10 26
8 27 -40 19 -41 -6 -45 -5 -42 12 2 14 15 19 58 23 42 4 56 9 58 23 3 15 -6
17 -76 17 l-79 0 -32 -92z"/>
<path d="M2253 503 l4 -98 33 0 c29 0 38 8 86 76 29 42 60 82 69 89 23 19 18
30 -14 30 -25 0 -35 -9 -73 -70 -24 -38 -45 -69 -48 -70 -3 0 -4 32 -2 70 l4
70 -32 0 -32 0 5 -97z"/>
<path d="M2467 506 c-37 -52 -67 -97 -67 -100 0 -15 51 -4 62 14 17 27 90 29
86 3 -2 -14 4 -18 27 -18 18 0 30 5 29 13 -1 6 -2 50 -2 97 l-2 85 -33 0 c-30
0 -38 -8 -100 -94z m83 9 c0 -31 -3 -35 -25 -35 l-24 0 20 35 c12 19 23 35 25
35 2 0 4 -16 4 -35z"/>
</g>
</svg>
